<?xml version="1.0" encoding="UTF-8" standalone="no"?>
<svg
   xmlns:dc="http://purl.org/dc/elements/1.1/"
   xmlns:cc="http://creativecommons.org/ns#"
   xmlns:rdf="http://www.w3.org/1999/02/22-rdf-syntax-ns#"
   xmlns:svg="http://www.w3.org/2000/svg"
   xmlns="http://www.w3.org/2000/svg"
   version="1.1"
   id="svg4254"
   viewBox="0 0 113.38583 113.38583"
   height="32mm"
   width="32mm">
  <defs
     id="defs4256" />
  <metadata
     id="metadata4259">
    <rdf:RDF>
      <cc:Work
         rdf:about="">
        <dc:format>image/svg+xml</dc:format>
        <dc:type
           rdf:resource="http://purl.org/dc/dcmitype/StillImage" />
        <dc:title></dc:title>
      </cc:Work>
    </rdf:RDF>
  </metadata>
  <g
     transform="translate(0,-938.97638)"
     id="layer1">
    <path
       id="path4813"
       d=""
       style="fill:#000000" />
    <g
       id="g21263"
       transform="matrix(1.5324684,0,0,1.4556658,7.4961754,949.70023)">
      <path
         id="path21265"
         d="M 0,0.5 0,0 0.5,0 1,0 1.5,0 2,0 2.5,0 3,0 3.5,0 4,0 4.5,0 5,0 5.5,0 6,0 6.5,0 7,0 7.5,0 8,0 8.5,0 9,0 9.5,0 10,0 10.5,0 11,0 11.5,0 12,0 12.5,0 13,0 13.5,0 14,0 14.5,0 15,0 15.5,0 16,0 16.5,0 17,0 17.5,0 18,0 18.5,0 19,0 19.5,0 20,0 20.5,0 21,0 21.5,0 22,0 22.5,0 23,0 23.5,0 24,0 24.5,0 25,0 25.5,0 26,0 26.5,0 27,0 27.5,0 28,0 28.5,0 29,0 29.5,0 30,0 30,0.5 q 0,0.5 0,1 0,0.5 0,1 Q 30,3 29.875,3.375 29.75,3.75 29.5,4 29.25,4.25 29,4.5 28.75,4.75 28.375,4.875 28,5 27.625,5.125 27.25,5.25 27,5.5 26.75,5.75 26.5,5.75 26.25,5.75 26.125,5.375 26,5 25.875,4.625 25.75,4.25 25.5,4 25.25,3.75 25,3.5 24.75,3.25 24.5,3 24.25,2.75 24.125,2.375 24,2 23.875,1.625 23.75,1.25 23.375,1.125 23,1 22.5,1 22,1 21.5,1 21,1 20.5,1 20,1 19.625,1.125 19.25,1.25 19.125,1.625 19,2 19,2.5 q 0,0.5 0,1 0,0.5 0,1 0,0.5 0,1 Q 19,6 19.125,6.375 19.25,6.75 19.5,7 19.75,7.25 19.75,7.5 19.75,7.75 19.5,8 19.25,8.25 19,8.5 18.75,8.75 18.5,9 18.25,9.25 18,9.5 17.75,9.75 17.5,9.75 17.25,9.75 17,9.5 16.75,9.25 16.5,9 16.25,8.75 16,8.5 15.75,8.25 15.5,8 15.25,7.75 15,7.5 14.75,7.25 14.375,7.125 14,7 13.625,6.875 13.25,6.75 13,6.5 12.75,6.25 12.5,6.25 12.25,6.25 12,6.5 11.75,6.75 11.375,6.875 11,7 10.625,7.125 10.25,7.25 10,7.5 9.75,7.75 9.5,8 9.25,8.25 9.25,8.5 9.25,8.75 9.5,9 9.75,9.25 9.875,9.625 10,10 10.125,10.375 10.25,10.75 10.5,11 10.75,11.25 10.875,11.625 11,12 11.125,12.375 11.25,12.75 11.5,13 q 0.25,0.25 0.375,0.625 0.125,0.375 0,0.75 Q 11.75,14.75 11.5,15 11.25,15.25 11.125,15.625 11,16 10.875,16.375 10.75,16.75 10.5,16.75 10.25,16.75 10,16.5 9.75,16.25 9.375,16.125 9,16 8.625,15.875 8.25,15.75 8,15.5 7.75,15.25 7.375,15.125 7,15 6.5,15 6,15 5.5,15 5,15 4.625,15.125 4.25,15.25 4,15.5 3.75,15.75 3.5,16 3.25,16.25 3.125,16.625 3,17 2.875,17.375 2.75,17.75 2.5,18 q -0.25,0.25 -0.25,0.5 0,0.25 0.375,0.375 Q 3,19 3.375,19.125 3.75,19.25 4,19.5 4.25,19.75 4.5,20 4.75,20.25 4.875,20.625 5,21 5.125,21.375 5.25,21.75 5.625,21.875 6,22 6.375,22.125 6.75,22.25 7,22.5 7.25,22.75 7.5,23 7.75,23.25 7.75,23.5 7.75,23.75 7.5,24 7.25,24.25 7,24.5 6.75,24.75 6.375,24.875 6,25 5.5,25 5,25 4.5,25 4,25 3.5,25 3,25 2.5,25 2,25 1.5,25 1,25 0.5,25 L 0,25 0,24.5 0,24 0,23.5 0,23 0,22.5 0,22 0,21.5 0,21 0,20.5 0,20 0,19.5 0,19 0,18.5 0,18 0,17.5 0,17 0,16.5 0,16 0,15.5 0,15 0,14.5 0,14 0,13.5 0,13 0,12.5 0,12 0,11.5 0,11 0,10.5 0,10 0,9.5 0,9 0,8.5 0,8 0,7.5 0,7 0,6.5 0,6 0,5.5 0,5 0,4.5 0,4 0,3.5 0,3 0,2.5 0,2 0,1.5 0,1 0,0.5"
         style="fill:#000000;fill-opacity:0" />
      <path
         id="path21267"
         d="M 30,0.5 30,0 30.5,0 31,0 31.5,0 32,0 32.5,0 33,0 33.5,0 34,0 34.5,0 35,0 35.5,0 36,0 36.125,0.375 Q 36.25,0.75 36.5,1 36.75,1.25 36.875,1.625 37,2 37,2.5 q 0,0.5 0,1 0,0.5 0.125,0.875 0.125,0.375 0.5,0.5 Q 38,5 38.5,5 39,5 39.375,4.875 39.75,4.75 39.875,4.375 40,4 40.125,3.625 40.25,3.25 40.5,3 40.75,2.75 40.875,2.375 41,2 41.125,1.625 41.25,1.25 41.5,1 41.75,0.75 41.875,0.375 L 42,0 42.5,0 43,0 43.5,0 44,0 44.5,0 45,0 45.125,0.375 q 0.125,0.375 0.5,0.5 Q 46,1 46.375,1.125 46.75,1.25 46.875,1.625 47,2 47,2.5 47,3 47,3.5 47,4 47,4.5 47,5 46.875,5.375 46.75,5.75 46.5,6 q -0.25,0.25 -0.25,0.5 0,0.25 0.25,0.5 0.25,0.25 0.5,0.5 0.25,0.25 0.5,0.5 0.25,0.25 0.5,0.5 0.25,0.25 0.5,0.25 0.25,0 0.5,-0.25 Q 49.25,8.25 49.5,8 49.75,7.75 50,7.5 50.25,7.25 50.625,7.125 51,7 51.375,6.875 51.75,6.75 51.875,6.375 52,6 52.125,5.625 52.25,5.25 52.5,5 52.75,4.75 53,4.5 q 0.25,-0.25 0.5,-0.25 0.25,0 0.5,0.25 0.25,0.25 0.5,0.5 0.25,0.25 0.5,0.5 0.25,0.25 0.5,0.5 0.25,0.25 0.5,0.5 0.25,0.25 0.5,0.5 0.25,0.25 0.25,0.5 0,0.25 -0.25,0.5 Q 56.25,8.25 56.125,8.625 56,9 56,9.5 56,10 55.875,10.375 55.75,10.75 55.5,11 55.25,11.25 55,11.5 54.75,11.75 54.5,12 54.25,12.25 54.125,12.625 54,13 54.125,13.375 54.25,13.75 54.5,14 q 0.25,0.25 0.5,0.5 0.25,0.25 0.625,0.375 0.375,0.125 0.75,0 Q 56.75,14.75 57,14.5 57.25,14.25 57.625,14.125 58,14 58.5,14 q 0.5,0 1,0 0.5,0 0.875,-0.125 Q 60.75,13.75 61,13.5 q 0.25,-0.25 0.5,-0.25 0.25,0 0.5,0.25 0.25,0.25 0.5,0.5 0.25,0.25 0.5,0.5 0.25,0.25 0.625,0.375 L 64,15 l 0,0.5 0,0.5 0,0.5 0,0.5 0,0.5 0,0.5 -0.375,0.125 Q 63.25,18.25 63,18.5 62.75,18.75 62.375,18.875 62,19 61.625,19.125 61.25,19.25 61,19.5 60.75,19.75 60.5,20 60.25,20.25 60,20.5 59.75,20.75 59.5,21 59.25,21.25 59.125,21.625 59,22 58.875,22.375 58.75,22.75 58.375,22.875 58,23 57.625,23.125 57.25,23.25 57,23.5 q -0.25,0.25 -0.5,0.25 -0.25,0 -0.375,-0.375 Q 56,23 55.875,22.625 55.75,22.25 55.5,22 55.25,21.75 55.125,21.375 55,21 55,20.5 55,20 54.875,19.625 54.75,19.25 54.375,19.125 54,19 53.625,18.875 53.25,18.75 53.125,18.375 53,18 52.875,17.625 52.75,17.25 52.5,17 52.25,16.75 52,16.5 51.75,16.25 51.5,16 51.25,15.75 51,15.5 50.75,15.25 50.5,15 50.25,14.75 50,14.5 49.75,14.25 49.375,14.125 49,14 48.625,13.875 48.25,13.75 48,13.5 47.75,13.25 47.5,13 47.25,12.75 47,12.5 46.75,12.25 46.375,12.125 46,12 45.625,11.875 45.25,11.75 45,11.5 44.75,11.25 44.5,11 44.25,10.75 44,10.5 43.75,10.25 43.375,10.125 43,10 42.5,10 42,10 41.625,9.875 41.25,9.75 41,9.5 40.75,9.25 40.375,9.125 40,9 39.5,9 39,9 38.5,9 38,9 37.5,9 37,9 36.625,8.875 36.25,8.75 36,8.5 35.75,8.25 35.375,8.125 35,8 34.5,8 34,8 33.625,8.125 33.25,8.25 33,8.5 32.75,8.75 32.375,8.875 32,9 31.5,9 31,9 30.5,9 30,9 29.5,9 29,9 28.5,9 28,9 27.625,9.125 27.25,9.25 27,9.5 26.75,9.75 26.375,9.875 26,10 25.5,10 25,10 24.625,10.125 24.25,10.25 24,10.5 23.75,10.75 23.375,10.875 23,11 22.625,11.125 22.25,11.25 22,11.5 21.75,11.75 21.375,11.875 21,12 20.625,12.125 20.25,12.25 20,12.5 19.75,12.75 19.5,13 19.25,13.25 19,13.5 18.75,13.75 18.5,14 18.25,14.25 18,14.5 17.75,14.75 17.5,15 17.25,15.25 17,15.5 16.75,15.75 16.5,16 16.25,16.25 16,16.5 15.75,16.75 15.5,17 15.25,17.25 15,17.5 14.75,17.75 14.5,18 14.25,18.25 14.125,18.625 14,19 13.875,19.375 13.75,19.75 13.5,20 13.25,20.25 13,20.5 12.75,20.75 12.5,21 12.25,21.25 12.125,21.625 12,22 11.875,22.375 11.75,22.75 11.5,23 11.25,23.25 11.125,23.625 11,24 11,24.5 11,25 10.875,25.375 10.75,25.75 10.5,26 10.25,26.25 10.125,26.625 10,27 10,27.5 q 0,0.5 0,1 0,0.5 0,1 0,0.5 0,1 0,0.5 0,1 0,0.5 0,1 0,0.5 0,1 0,0.5 0,1 0,0.5 0,1 0,0.5 0,1 0,0.5 0,1 0,0.5 0,1 0,0.5 0.125,0.875 Q 10.25,39.75 10.5,40 10.75,40.25 10.875,40.625 11,41 11,41.5 q 0,0.5 0,1 0,0.5 0.125,0.875 0.125,0.375 0.375,0.625 0.25,0.25 0.5,0.5 0.25,0.25 0.5,0.5 0.25,0.25 0.5,0.5 0.25,0.25 0.5,0.5 0.25,0.25 0.375,0.625 Q 14,47 14,47.5 q 0,0.5 0,1 0,0.5 0,1 0,0.5 -0.125,0.875 -0.125,0.375 -0.5,0.5 Q 13,51 12.5,51 12,51 11.625,51.125 11.25,51.25 11,51.5 10.75,51.75 10.375,51.875 10,52 9.625,52.125 9.25,52.25 9,52.5 8.75,52.75 8.375,52.875 8,53 7.625,53.125 7.25,53.25 7,53.5 6.75,53.75 6.375,53.875 6,54 5.625,53.875 5.25,53.75 5.125,53.375 5,53 4.875,52.625 4.75,52.25 4.5,52 4.25,51.75 4.125,51.375 4,51 3.875,50.625 3.75,50.25 3.5,50 3.25,49.75 3.25,49.5 3.25,49.25 3.625,49.125 4,49 4.375,48.875 4.75,48.75 5,48.5 5.25,48.25 5.5,48 5.75,47.75 6,47.5 6.25,47.25 6.5,47 6.75,46.75 7,46.5 7.25,46.25 7.5,46 7.75,45.75 7.875,45.375 8,45 8,44.5 8,44 7.875,43.625 7.75,43.25 7.375,43.125 7,43 6.5,43 6,43 5.5,43 5,43 4.5,43 4,43 3.5,43 3,43 2.5,43 2,43 1.5,43 1,43 0.5,43 L 0,43 0,42.5 0,42 0,41.5 0,41 0,40.5 0,40 0,39.5 0,39 0,38.5 0,38 0.5,38 Q 1,38 1.5,38 2,38 2.375,37.875 2.75,37.75 3,37.5 3.25,37.25 3.625,37.125 4,37 4.375,36.875 4.75,36.75 4.875,36.375 5,36 5,35.5 5,35 5,34.5 5,34 4.875,33.625 4.75,33.25 4.375,33.125 4,33 3.5,33 3,33 2.625,32.875 2.25,32.75 2.125,32.375 2,32 2,31.5 2,31 1.875,30.625 1.75,30.25 1.375,30.125 1,30 0.5,30 L 0,30 0,29.5 0,29 0,28.5 0,28 0,27.5 0,27 0,26.5 0,26 0,25.5 0,25 0.5,25 q 0.5,0 1,0 0.5,0 1,0 0.5,0 1,0 0.5,0 1,0 0.5,0 1,0 Q 6,25 6.375,24.875 6.75,24.75 7,24.5 7.25,24.25 7.5,24 7.75,23.75 7.75,23.5 7.75,23.25 7.5,23 7.25,22.75 7,22.5 6.75,22.25 6.375,22.125 6,22 5.625,21.875 5.25,21.75 5.125,21.375 5,21 4.875,20.625 4.75,20.25 4.5,20 4.25,19.75 4,19.5 3.75,19.25 3.375,19.125 3,19 2.625,18.875 2.25,18.75 2.25,18.5 2.25,18.25 2.5,18 2.75,17.75 2.875,17.375 3,17 3.125,16.625 3.25,16.25 3.5,16 3.75,15.75 4,15.5 4.25,15.25 4.625,15.125 5,15 5.5,15 6,15 6.5,15 7,15 7.375,15.125 7.75,15.25 8,15.5 8.25,15.75 8.625,15.875 9,16 9.375,16.125 9.75,16.25 10,16.5 q 0.25,0.25 0.5,0.25 0.25,0 0.375,-0.375 Q 11,16 11.125,15.625 11.25,15.25 11.5,15 11.75,14.75 11.875,14.375 12,14 11.875,13.625 11.75,13.25 11.5,13 11.25,12.75 11.125,12.375 11,12 10.875,11.625 10.75,11.25 10.5,11 10.25,10.75 10.125,10.375 10,10 9.875,9.625 9.75,9.25 9.5,9 9.25,8.75 9.25,8.5 9.25,8.25 9.5,8 9.75,7.75 10,7.5 10.25,7.25 10.625,7.125 11,7 11.375,6.875 11.75,6.75 12,6.5 12.25,6.25 12.5,6.25 12.75,6.25 13,6.5 13.25,6.75 13.625,6.875 14,7 14.375,7.125 14.75,7.25 15,7.5 15.25,7.75 15.5,8 15.75,8.25 16,8.5 16.25,8.75 16.5,9 16.75,9.25 17,9.5 17.25,9.75 17.5,9.75 17.75,9.75 18,9.5 18.25,9.25 18.5,9 18.75,8.75 19,8.5 19.25,8.25 19.5,8 19.75,7.75 19.75,7.5 19.75,7.25 19.5,7 19.25,6.75 19.125,6.375 19,6 19,5.5 19,5 19,4.5 19,4 19,3.5 19,3 19,2.5 19,2 19.125,1.625 19.25,1.25 19.625,1.125 20,1 20.5,1 q 0.5,0 1,0 0.5,0 1,0 0.5,0 0.875,0.125 0.375,0.125 0.5,0.5 Q 24,2 24.125,2.375 24.25,2.75 24.5,3 24.75,3.25 25,3.5 25.25,3.75 25.5,4 25.75,4.25 25.875,4.625 26,5 26.125,5.375 26.25,5.75 26.5,5.75 26.75,5.75 27,5.5 27.25,5.25 27.625,5.125 28,5 28.375,4.875 28.75,4.75 29,4.5 29.25,4.25 29.5,4 29.75,3.75 29.875,3.375 30,3 30,2.5 30,2 30,1.5 30,1 30,0.5"
         style="fill:#ffffff;fill-opacity:1" />
      <path
         id="path21269"
         d="M 36.125,0.375 36,0 36.5,0 37,0 37.5,0 38,0 38.5,0 39,0 39.5,0 40,0 40.5,0 41,0 41.5,0 42,0 41.875,0.375 Q 41.75,0.75 41.5,1 41.25,1.25 41.125,1.625 41,2 40.875,2.375 40.75,2.75 40.5,3 40.25,3.25 40.125,3.625 40,4 39.875,4.375 39.75,4.75 39.375,4.875 39,5 38.5,5 38,5 37.625,4.875 37.25,4.75 37.125,4.375 37,4 37,3.5 37,3 37,2.5 37,2 36.875,1.625 36.75,1.25 36.5,1 36.25,0.75 36.125,0.375"
         style="fill:#000000;fill-opacity:0" />
      <path
         id="path21271"
         d="M 45.125,0.375 45,0 l 0.5,0 0.5,0 0.5,0 0.5,0 0.5,0 0.5,0 0.5,0 0.5,0 0.5,0 0.5,0 0.5,0 0.5,0 0.5,0 0.5,0 0.5,0 0.5,0 0.5,0 0.5,0 0.5,0 0.5,0 0.5,0 0.5,0 0.5,0 0.5,0 0.5,0 0.5,0 0.5,0 0.5,0 0.5,0 0.5,0 0.5,0 0.5,0 0.5,0 0.5,0 0.5,0 0.5,0 0.5,0 0.5,0 0,0.5 0,0.5 0,0.5 0,0.5 0,0.5 0,0.5 0,0.5 0,0.5 0,0.5 0,0.5 0,0.5 0,0.5 0,0.5 0,0.5 0,0.5 0,0.5 0,0.5 0,0.5 0,0.5 0,0.5 0,0.5 0,0.5 0,0.5 0,0.5 0,0.5 0,0.5 0,0.5 0,0.5 0,0.5 0,0.5 -0.375,-0.125 Q 63.25,14.75 63,14.5 62.75,14.25 62.5,14 62.25,13.75 62,13.5 61.75,13.25 61.5,13.25 61.25,13.25 61,13.5 60.75,13.75 60.375,13.875 60,14 59.5,14 59,14 58.5,14 58,14 57.625,14.125 57.25,14.25 57,14.5 56.75,14.75 56.375,14.875 56,15 55.625,14.875 55.25,14.75 55,14.5 54.75,14.25 54.5,14 54.25,13.75 54.125,13.375 54,13 54.125,12.625 54.25,12.25 54.5,12 54.75,11.75 55,11.5 55.25,11.25 55.5,11 55.75,10.75 55.875,10.375 56,10 56,9.5 56,9 56.125,8.625 56.25,8.25 56.5,8 56.75,7.75 56.75,7.5 56.75,7.25 56.5,7 56.25,6.75 56,6.5 55.75,6.25 55.5,6 55.25,5.75 55,5.5 54.75,5.25 54.5,5 54.25,4.75 54,4.5 53.75,4.25 53.5,4.25 53.25,4.25 53,4.5 52.75,4.75 52.5,5 52.25,5.25 52.125,5.625 52,6 51.875,6.375 51.75,6.75 51.375,6.875 51,7 50.625,7.125 50.25,7.25 50,7.5 49.75,7.75 49.5,8 49.25,8.25 49,8.5 48.75,8.75 48.5,8.75 48.25,8.75 48,8.5 47.75,8.25 47.5,8 47.25,7.75 47,7.5 46.75,7.25 46.5,7 46.25,6.75 46.25,6.5 46.25,6.25 46.5,6 46.75,5.75 46.875,5.375 47,5 47,4.5 47,4 47,3.5 47,3 47,2.5 47,2 46.875,1.625 46.75,1.25 46.375,1.125 46,1 45.625,0.875 45.25,0.75 45.125,0.375"
         style="fill:#000000;fill-opacity:0" />
      <path
         id="path21273"
         d="M 33,8.5 Q 33.25,8.25 33.625,8.125 34,8 34.5,8 35,8 35.375,8.125 35.75,8.25 36,8.5 36.25,8.75 36.625,8.875 37,9 37.5,9 38,9 38.5,9 39,9 39.5,9 40,9 40.375,9.125 40.75,9.25 41,9.5 41.25,9.75 41.625,9.875 42,10 42.5,10 43,10 43.375,10.125 43.75,10.25 44,10.5 q 0.25,0.25 0.5,0.5 0.25,0.25 0.5,0.5 0.25,0.25 0.625,0.375 Q 46,12 46.375,12.125 46.75,12.25 47,12.5 q 0.25,0.25 0.5,0.5 0.25,0.25 0.5,0.5 0.25,0.25 0.625,0.375 Q 49,14 49.375,14.125 49.75,14.25 50,14.5 q 0.25,0.25 0.5,0.5 0.25,0.25 0.5,0.5 0.25,0.25 0.5,0.5 0.25,0.25 0.5,0.5 0.25,0.25 0.5,0.5 0.25,0.25 0.375,0.625 0.125,0.375 0.25,0.75 0.125,0.375 0.5,0.5 0.375,0.125 0.75,0.25 0.375,0.125 0.5,0.5 Q 55,20 55,20.5 55,21 55.125,21.375 55.25,21.75 55.5,22 q 0.25,0.25 0.375,0.625 0.125,0.375 0.25,0.75 0.125,0.375 0.375,0.375 0.25,0 0.5,-0.25 0.25,-0.25 0.625,-0.375 Q 58,23 58.375,22.875 58.75,22.75 58.875,22.375 59,22 59.125,21.625 59.25,21.25 59.5,21 59.75,20.75 60,20.5 60.25,20.25 60.5,20 60.75,19.75 61,19.5 61.25,19.25 61.625,19.125 62,19 62.375,18.875 62.75,18.75 63,18.5 63.25,18.25 63.625,18.125 L 64,18 l 0,0.5 0,0.5 0,0.5 0,0.5 0,0.5 0,0.5 0,0.5 0,0.5 0,0.5 0,0.5 0,0.5 0,0.5 0,0.5 0,0.5 0,0.5 0,0.5 0,0.5 0,0.5 0,0.5 0,0.5 0,0.5 0,0.5 0,0.5 0,0.5 0,0.5 0,0.5 0,0.5 0,0.5 0,0.5 0,0.5 0,0.5 0,0.5 0,0.5 0,0.5 0,0.5 0,0.5 0,0.5 0,0.5 0,0.5 0,0.5 0,0.5 0,0.5 0,0.5 0,0.5 0,0.5 0,0.5 0,0.5 0,0.5 0,0.5 0,0.5 0,0.5 0,0.5 0,0.5 0,0.5 0,0.5 0,0.5 0,0.5 0,0.5 0,0.5 0,0.5 0,0.5 0,0.5 0,0.5 0,0.5 0,0.5 0,0.5 0,0.5 0,0.5 0,0.5 0,0.5 0,0.5 0,0.5 0,0.5 0,0.5 0,0.5 0,0.5 0,0.5 0,0.5 0,0.5 0,0.5 0,0.5 0,0.5 0,0.5 0,0.5 0,0.5 0,0.5 0,0.5 0,0.5 0,0.5 0,0.5 0,0.5 0,0.5 -0.5,0 -0.5,0 -0.5,0 -0.5,0 -0.5,0 -0.5,0 -0.5,0 -0.5,0 -0.5,0 -0.5,0 -0.5,0 -0.5,0 -0.5,0 -0.5,0 -0.5,0 -0.5,0 -0.5,0 -0.5,0 -0.5,0 -0.5,0 0,-0.5 q 0,-0.5 0,-1 0,-0.5 0,-1 0,-0.5 0,-1 0,-0.5 0,-1 Q 54,59 53.875,58.625 53.75,58.25 53.5,58 53.25,57.75 53.125,57.375 53,57 53,56.5 q 0,-0.5 0,-1 0,-0.5 0,-1 0,-0.5 0,-1 0,-0.5 0,-1 0,-0.5 0,-1 0,-0.5 0,-1 0,-0.5 0,-1 Q 53,49 52.875,48.625 52.75,48.25 52.5,48 52.25,47.75 52.125,47.375 52,47 52,46.5 52,46 52,45.5 52,45 52,44.5 52,44 51.875,43.625 51.75,43.25 51.5,43 51.25,42.75 51,42.5 50.75,42.25 50.5,42 50.25,41.75 50,41.5 49.75,41.25 49.5,41 49.25,40.75 49,40.5 48.75,40.25 48.375,40.125 48,40 47.5,40 47,40 46.5,40 46,40 45.625,39.875 45.25,39.75 45,39.5 44.75,39.25 44.375,39.125 44,39 43.625,38.875 43.25,38.75 43,38.5 42.75,38.25 42.5,38 42.25,37.75 42.125,37.375 42,37 41.875,36.625 41.75,36.25 41.5,36 41.25,35.75 41.125,35.375 41,35 41,34.5 41,34 41.125,33.625 41.25,33.25 41.625,33.125 42,33 42.5,33 q 0.5,0 1,0 0.5,0 1,0 0.5,0 1,0 0.5,0 1,0 0.5,0 1,0 0.5,0 0.875,0.125 0.375,0.125 0.625,0.375 0.25,0.25 0.5,0.5 0.25,0.25 0.375,0.625 Q 50,35 50,35.5 q 0,0.5 0,1 0,0.5 0.125,0.875 0.125,0.375 0.5,0.5 0.375,0.125 0.75,0 0.375,-0.125 0.5,-0.5 Q 52,37 52,36.5 q 0,-0.5 0,-1 0,-0.5 0,-1 0,-0.5 0,-1 0,-0.5 0,-1 0,-0.5 0,-1 0,-0.5 0,-1 0,-0.5 0,-1 Q 52,29 51.875,28.625 51.75,28.25 51.5,28 51.25,27.75 51.125,27.375 51,27 50.875,26.625 50.75,26.25 50.5,26 50.25,25.75 50.125,25.375 50,25 49.875,24.625 49.75,24.25 49.5,24 49.25,23.75 49,23.5 48.75,23.25 48.5,23 48.25,22.75 48,22.5 47.75,22.25 47.5,22 47.25,21.75 47.125,21.375 47,21 46.875,20.625 46.75,20.25 46.5,20 46.25,19.75 46,19.5 45.75,19.25 45.375,19.125 45,19 44.625,18.875 44.25,18.75 44,18.5 43.75,18.25 43.375,18.125 43,18 42.625,17.875 42.25,17.75 42,17.5 41.75,17.25 41.375,17.125 41,17 40.625,16.875 40.25,16.75 40,16.5 39.75,16.25 39.375,16.125 39,16 38.5,16 38,16 37.5,16 37,16 36.625,15.875 36.25,15.75 36,15.5 35.75,15.25 35.375,15.125 35,15 34.5,15 34,15 33.625,15.125 33.25,15.25 33,15.5 32.75,15.75 32.375,15.875 32,16 31.5,16 q -0.5,0 -1,0 -0.5,0 -1,0 -0.5,0 -1,0 Q 28,16 27.625,16.125 27.25,16.25 27,16.5 26.75,16.75 26.375,16.875 26,17 25.625,17.125 25.25,17.25 25,17.5 24.75,17.75 24.5,18 24.25,18.25 24,18.5 23.75,18.75 23.375,18.875 23,19 22.5,19 22,19 21.625,19.125 21.25,19.25 21.125,19.625 21,20 20.875,20.375 20.75,20.75 20.5,21 20.25,21.25 20,21.5 19.75,21.75 19.5,22 19.25,22.25 19.125,22.625 19,23 18.875,23.375 18.75,23.75 18.5,24 18.25,24.25 18,24.5 17.75,24.75 17.5,25 17.25,25.25 17.125,25.625 17,26 17,26.5 q 0,0.5 0,1 0,0.5 -0.125,0.875 Q 16.75,28.75 16.5,29 16.25,29.25 16.125,29.625 16,30 16,30.5 q 0,0.5 0,1 0,0.5 0,1 0,0.5 0,1 0,0.5 0,1 0,0.5 0,1 0,0.5 0,1 0,0.5 0.125,0.875 Q 16.25,37.75 16.5,38 16.75,38.25 16.875,38.625 17,39 17.125,39.375 17.25,39.75 17.5,40 17.75,40.25 17.875,40.625 18,41 18,41.5 18,42 18.125,42.375 18.25,42.75 18.5,43 18.75,43.25 18.875,43.625 19,44 19,44.5 q 0,0.5 0,1 0,0.5 0,1 0,0.5 0,1 0,0.5 -0.125,0.875 Q 18.75,48.75 18.5,49 18.25,49.25 18.125,49.625 18,50 17.875,50.375 17.75,50.75 17.5,51 17.25,51.25 17.125,51.625 17,52 16.875,52.375 16.75,52.75 16.5,53 16.25,53.25 16.125,53.625 16,54 16,54.5 16,55 16.125,55.375 16.25,55.75 16.5,56 q 0.25,0.25 0.5,0.5 0.25,0.25 0.625,0.375 0.375,0.125 0.75,0 Q 18.75,56.75 19,56.5 19.25,56.25 19.625,56.125 20,56 20.375,55.875 20.75,55.75 21,55.5 21.25,55.25 21.625,55.125 22,55 22.375,54.875 22.75,54.75 23,54.5 23.25,54.25 23.625,54.125 24,54 24.5,54 25,54 25.375,53.875 25.75,53.75 26,53.5 26.25,53.25 26.625,53.125 27,53 27.5,53 q 0.5,0 1,0 0.5,0 0.875,-0.125 0.375,-0.125 0.5,-0.5 Q 30,52 30,51.5 30,51 30,50.5 30,50 29.875,49.625 29.75,49.25 29.5,49 29.25,48.75 29.125,48.375 29,48 29,47.5 q 0,-0.5 0,-1 0,-0.5 0,-1 0,-0.5 0,-1 0,-0.5 0.125,-0.875 0.125,-0.375 0.375,-0.375 0.25,0 0.375,0.375 Q 30,44 30,44.5 q 0,0.5 0,1 0,0.5 0,1 0,0.5 0,1 0,0.5 0.125,0.875 0.125,0.375 0.375,0.625 0.25,0.25 0.375,0.625 0.125,0.375 0.25,0.75 0.125,0.375 0.5,0.5 Q 32,51 32.375,51.125 32.75,51.25 33,51.5 q 0.25,0.25 0.5,0.5 0.25,0.25 0.5,0.5 0.25,0.25 0.625,0.375 Q 35,53 35.5,53 q 0.5,0 1,0 0.5,0 1,0 0.5,0 0.875,0.125 Q 38.75,53.25 39,53.5 39.25,53.75 39.625,53.875 40,54 40.5,54 41,54 41.375,54.125 41.75,54.25 42,54.5 42.25,54.75 42.625,54.875 43,55 43.375,55.125 43.75,55.25 44,55.5 44.25,55.75 44.625,55.875 45,56 45.5,56 46,56 46.375,56.125 46.75,56.25 47,56.5 q 0.25,0.25 0.5,0.5 0.25,0.25 0.375,0.625 Q 48,58 48.125,58.375 48.25,58.75 48.5,59 q 0.25,0.25 0.5,0.5 0.25,0.25 0.5,0.5 0.25,0.25 0.5,0.5 0.25,0.25 0.625,0.375 Q 51,61 51.375,61.125 51.75,61.25 52,61.5 q 0.25,0.25 0.5,0.5 0.25,0.25 0.375,0.625 Q 53,63 53,63.5 L 53,64 52.5,64 52,64 51.5,64 51,64 50.5,64 50,64 49.5,64 49,64 48.5,64 48,64 47.5,64 47,64 46.5,64 46,64 45.5,64 45,64 44.5,64 44,64 43.5,64 43,64 42.5,64 42,64 41.5,64 41,64 40.5,64 40,64 39.5,64 39,64 38.5,64 38,64 37.5,64 37,64 36.5,64 36,64 35.5,64 35,64 34.5,64 34,64 33.5,64 33,64 32.5,64 32,64 31.5,64 31,64 30.5,64 30,64 29.5,64 29,64 28.5,64 28,64 27.5,64 27,64 26.5,64 26,64 25.5,64 25,64 24.5,64 24,64 23.5,64 23,64 22.5,64 22,64 21.5,64 21,64 20.5,64 20,64 19.5,64 19,64 18.5,64 18,64 17.5,64 17,64 16.5,64 16,64 15.5,64 15,64 14.5,64 14,64 13.5,64 13,64 12.5,64 12,64 11.5,64 11,64 10.5,64 10,64 9.5,64 9,64 8.5,64 8,64 7.5,64 7,64 6.5,64 6,64 5.5,64 5,64 4.5,64 4,64 3.5,64 3,64 2.5,64 2,64 1.5,64 1,64 0.5,64 0,64 0,63.5 0,63 0,62.5 0,62 0,61.5 0,61 0,60.5 0,60 0,59.5 0,59 0,58.5 0,58 0,57.5 0,57 0,56.5 0,56 0,55.5 0,55 0,54.5 0,54 0,53.5 0,53 0,52.5 0,52 0,51.5 0,51 0,50.5 0,50 0,49.5 0,49 0,48.5 0,48 0,47.5 0,47 0,46.5 0,46 0,45.5 0,45 0,44.5 0,44 0,43.5 0,43 0.5,43 q 0.5,0 1,0 0.5,0 1,0 0.5,0 1,0 0.5,0 1,0 0.5,0 1,0 0.5,0 1,0 0.5,0 0.875,0.125 0.375,0.125 0.5,0.5 Q 8,44 8,44.5 8,45 7.875,45.375 7.75,45.75 7.5,46 7.25,46.25 7,46.5 6.75,46.75 6.5,47 6.25,47.25 6,47.5 5.75,47.75 5.5,48 5.25,48.25 5,48.5 4.75,48.75 4.375,48.875 4,49 3.625,49.125 3.25,49.25 3.25,49.5 3.25,49.75 3.5,50 3.75,50.25 3.875,50.625 4,51 4.125,51.375 4.25,51.75 4.5,52 4.75,52.25 4.875,52.625 5,53 5.125,53.375 5.25,53.75 5.625,53.875 6,54 6.375,53.875 6.75,53.75 7,53.5 7.25,53.25 7.625,53.125 8,53 8.375,52.875 8.75,52.75 9,52.5 9.25,52.25 9.625,52.125 10,52 10.375,51.875 10.75,51.75 11,51.5 11.25,51.25 11.625,51.125 12,51 12.5,51 q 0.5,0 0.875,-0.125 0.375,-0.125 0.5,-0.5 Q 14,50 14,49.5 14,49 14,48.5 14,48 14,47.5 14,47 13.875,46.625 13.75,46.25 13.5,46 13.25,45.75 13,45.5 12.75,45.25 12.5,45 12.25,44.75 12,44.5 11.75,44.25 11.5,44 11.25,43.75 11.125,43.375 11,43 11,42.5 11,42 11,41.5 11,41 10.875,40.625 10.75,40.25 10.5,40 10.25,39.75 10.125,39.375 10,39 10,38.5 q 0,-0.5 0,-1 0,-0.5 0,-1 0,-0.5 0,-1 0,-0.5 0,-1 0,-0.5 0,-1 0,-0.5 0,-1 0,-0.5 0,-1 0,-0.5 0,-1 0,-0.5 0,-1 0,-0.5 0,-1 0,-0.5 0,-1 Q 10,27 10.125,26.625 10.25,26.25 10.5,26 10.75,25.75 10.875,25.375 11,25 11,24.5 11,24 11.125,23.625 11.25,23.25 11.5,23 11.75,22.75 11.875,22.375 12,22 12.125,21.625 12.25,21.25 12.5,21 12.75,20.75 13,20.5 13.25,20.25 13.5,20 13.75,19.75 13.875,19.375 14,19 14.125,18.625 14.25,18.25 14.5,18 14.75,17.75 15,17.5 15.25,17.25 15.5,17 15.75,16.75 16,16.5 16.25,16.25 16.5,16 16.75,15.75 17,15.5 17.25,15.25 17.5,15 17.75,14.75 18,14.5 18.25,14.25 18.5,14 18.75,13.75 19,13.5 19.25,13.25 19.5,13 19.75,12.75 20,12.5 20.25,12.25 20.625,12.125 21,12 21.375,11.875 21.75,11.75 22,11.5 22.25,11.25 22.625,11.125 23,11 23.375,10.875 23.75,10.75 24,10.5 24.25,10.25 24.625,10.125 25,10 25.5,10 26,10 26.375,9.875 26.75,9.75 27,9.5 27.25,9.25 27.625,9.125 28,9 28.5,9 q 0.5,0 1,0 0.5,0 1,0 0.5,0 1,0 Q 32,9 32.375,8.875 32.75,8.75 33,8.5 m -17,39 q 0.25,0.25 0.5,0.25 0.25,0 0.375,-0.375 Q 17,47 17,46.5 q 0,-0.5 0,-1 0,-0.5 0,-1 0,-0.5 0,-1 Q 17,43 16.875,42.625 16.75,42.25 16.5,42 16.25,41.75 16.125,41.375 16,41 16,40.5 16,40 16,39.5 16,39 15.875,38.625 15.75,38.25 15.5,38 15.25,37.75 15.125,37.375 15,37 15,36.5 q 0,-0.5 0,-1 0,-0.5 0,-1 0,-0.5 0,-1 0,-0.5 0,-1 0,-0.5 0,-1 0,-0.5 0,-1 0,-0.5 0,-1 Q 15,29 15.125,28.625 15.25,28.25 15.5,28 15.75,27.75 15.875,27.375 16,27 16,26.5 16,26 16,25.5 16,25 16.125,24.625 16.25,24.25 16.5,24 16.75,23.75 17,23.5 17.25,23.25 17.5,23 17.75,22.75 18,22.5 18.25,22.25 18.5,22 18.75,21.75 18.875,21.375 19,21 19,20.5 19,20 19.125,19.625 19.25,19.25 19.625,19.125 20,19 20.375,18.875 20.75,18.75 21,18.5 21.25,18.25 21.625,18.125 22,18 22.375,17.875 22.75,17.75 23,17.5 23.25,17.25 23.5,17 23.75,16.75 24,16.5 24.25,16.25 24.625,16.125 25,16 25.375,15.875 25.75,15.75 26,15.5 26.25,15.25 26.625,15.125 27,15 27.5,15 28,15 28.375,14.875 28.75,14.75 29,14.5 29.25,14.25 29.625,14.125 30,14 30.5,14 q 0.5,0 1,0 0.5,0 1,0 0.5,0 1,0 0.5,0 1,0 0.5,0 1,0 0.5,0 1,0 0.5,0 1,0 0.5,0 0.875,0.125 Q 38.75,14.25 39,14.5 39.25,14.75 39.625,14.875 40,15 40.5,15 41,15 41.375,15.125 41.75,15.25 42,15.5 42.25,15.75 42.625,15.875 43,16 43.375,16.125 43.75,16.25 44,16.5 q 0.25,0.25 0.5,0.5 0.25,0.25 0.5,0.5 0.25,0.25 0.5,0.5 0.25,0.25 0.5,0.5 0.25,0.25 0.625,0.375 Q 47,19 47.375,19.125 47.75,19.25 48,19.5 q 0.25,0.25 0.5,0.5 0.25,0.25 0.375,0.625 Q 49,21 49.125,21.375 49.25,21.75 49.5,22 q 0.25,0.25 0.375,0.625 0.125,0.375 0.25,0.75 0.125,0.375 0.5,0.5 0.375,0.125 0.75,0.25 0.375,0.125 0.5,0.5 0.125,0.375 0.25,0.75 0.125,0.375 0.5,0.5 0.375,0.125 0.75,0 Q 53.75,25.75 54,25.5 54.25,25.25 54.5,25 54.75,24.75 54.875,24.375 55,24 54.875,23.625 54.75,23.25 54.5,23 54.25,22.75 54.125,22.375 54,22 53.875,21.625 53.75,21.25 53.5,21 53.25,20.75 53.125,20.375 53,20 52.875,19.625 52.75,19.25 52.5,19 52.25,18.75 52,18.5 51.75,18.25 51.375,18.125 51,18 50.625,17.875 50.25,17.75 50.125,17.375 50,17 49.875,16.625 49.75,16.25 49.5,16 49.25,15.75 49,15.5 48.75,15.25 48.375,15.125 48,15 47.625,14.875 47.25,14.75 47,14.5 46.75,14.25 46.5,14 46.25,13.75 46,13.5 45.75,13.25 45.375,13.125 45,13 44.625,12.875 44.25,12.75 44,12.5 43.75,12.25 43.375,12.125 43,12 42.625,11.875 42.25,11.75 42,11.5 41.75,11.25 41.375,11.125 41,11 40.5,11 40,11 39.625,10.875 39.25,10.75 39,10.5 38.75,10.25 38.375,10.125 38,10 37.5,10 q -0.5,0 -1,0 -0.5,0 -1,0 -0.5,0 -1,0 -0.5,0 -1,0 -0.5,0 -1,0 -0.5,0 -1,0 -0.5,0 -1,0 Q 30,10 29.625,10.125 29.25,10.25 29,10.5 28.75,10.75 28.375,10.875 28,11 27.5,11 27,11 26.625,11.125 26.25,11.25 26,11.5 25.75,11.75 25.375,11.875 25,12 24.625,12.125 24.25,12.25 24,12.5 23.75,12.75 23.375,12.875 23,13 22.5,13 22,13 21.625,13.125 21.25,13.25 21,13.5 20.75,13.75 20.5,14 20.25,14.25 20,14.5 19.75,14.75 19.5,15 19.25,15.25 19,15.5 18.75,15.75 18.5,16 18.25,16.25 18,16.5 17.75,16.75 17.5,17 17.25,17.25 17,17.5 16.75,17.75 16.5,18 16.25,18.25 16,18.5 15.75,18.75 15.5,19 15.25,19.25 15.125,19.625 15,20 14.875,20.375 14.75,20.75 14.5,21 14.25,21.25 14.125,21.625 14,22 13.875,22.375 13.75,22.75 13.5,23 13.25,23.25 13,23.5 12.75,23.75 12.5,24 12.25,24.25 12.125,24.625 12,25 12,25.5 12,26 11.875,26.375 11.75,26.75 11.5,27 11.25,27.25 11.125,27.625 11,28 11,28.5 q 0,0.5 0,1 0,0.5 0,1 0,0.5 0,1 0,0.5 0,1 0,0.5 0,1 0,0.5 0,1 0,0.5 0,1 0,0.5 0,1 0,0.5 0,1 0,0.5 0.125,0.875 Q 11.25,38.75 11.5,39 11.75,39.25 11.875,39.625 12,40 12,40.5 12,41 12.125,41.375 12.25,41.75 12.5,42 q 0.25,0.25 0.5,0.5 0.25,0.25 0.5,0.5 0.25,0.25 0.375,0.625 Q 14,44 14,44.5 14,45 14.125,45.375 14.25,45.75 14.5,46 q 0.25,0.25 0.5,0.5 0.25,0.25 0.5,0.5 0.25,0.25 0.5,0.5"
         style="fill:#000000;fill-opacity:0" />
      <path
         id="path21275"
         d="M 29,10.5 Q 29.25,10.25 29.625,10.125 30,10 30.5,10 q 0.5,0 1,0 0.5,0 1,0 0.5,0 1,0 0.5,0 1,0 0.5,0 1,0 0.5,0 1,0 0.5,0 1,0 0.5,0 0.875,0.125 Q 38.75,10.25 39,10.5 39.25,10.75 39.625,10.875 40,11 40.5,11 41,11 41.375,11.125 41.75,11.25 42,11.5 42.25,11.75 42.625,11.875 43,12 43.375,12.125 43.75,12.25 44,12.5 44.25,12.75 44.625,12.875 45,13 45.375,13.125 45.75,13.25 46,13.5 q 0.25,0.25 0.5,0.5 0.25,0.25 0.5,0.5 0.25,0.25 0.625,0.375 Q 48,15 48.375,15.125 48.75,15.25 49,15.5 q 0.25,0.25 0.5,0.5 0.25,0.25 0.375,0.625 0.125,0.375 0.25,0.75 0.125,0.375 0.5,0.5 Q 51,18 51.375,18.125 51.75,18.25 52,18.5 q 0.25,0.25 0.5,0.5 0.25,0.25 0.375,0.625 Q 53,20 53.125,20.375 53.25,20.75 53.5,21 53.75,21.25 53.875,21.625 54,22 54.125,22.375 54.25,22.75 54.5,23 q 0.25,0.25 0.375,0.625 0.125,0.375 0,0.75 Q 54.75,24.75 54.5,25 54.25,25.25 54,25.5 53.75,25.75 53.375,25.875 53,26 52.625,25.875 52.25,25.75 52.125,25.375 52,25 51.875,24.625 51.75,24.25 51.375,24.125 51,24 50.625,23.875 50.25,23.75 50.125,23.375 50,23 49.875,22.625 49.75,22.25 49.5,22 49.25,21.75 49.125,21.375 49,21 48.875,20.625 48.75,20.25 48.5,20 48.25,19.75 48,19.5 47.75,19.25 47.375,19.125 47,19 46.625,18.875 46.25,18.75 46,18.5 45.75,18.25 45.5,18 45.25,17.75 45,17.5 44.75,17.25 44.5,17 44.25,16.75 44,16.5 43.75,16.25 43.375,16.125 43,16 42.625,15.875 42.25,15.75 42,15.5 41.75,15.25 41.375,15.125 41,15 40.5,15 40,15 39.625,14.875 39.25,14.75 39,14.5 38.75,14.25 38.375,14.125 38,14 37.5,14 q -0.5,0 -1,0 -0.5,0 -1,0 -0.5,0 -1,0 -0.5,0 -1,0 -0.5,0 -1,0 -0.5,0 -1,0 -0.5,0 -1,0 Q 30,14 29.625,14.125 29.25,14.25 29,14.5 28.75,14.75 28.375,14.875 28,15 27.5,15 27,15 26.625,15.125 26.25,15.25 26,15.5 25.75,15.75 25.375,15.875 25,16 24.625,16.125 24.25,16.25 24,16.5 23.75,16.75 23.5,17 23.25,17.25 23,17.5 22.75,17.75 22.375,17.875 22,18 21.625,18.125 21.25,18.25 21,18.5 20.75,18.75 20.375,18.875 20,19 19.625,19.125 19.25,19.25 19.125,19.625 19,20 19,20.5 19,21 18.875,21.375 18.75,21.75 18.5,22 18.25,22.25 18,22.5 17.75,22.75 17.5,23 17.25,23.25 17,23.5 16.75,23.75 16.5,24 16.25,24.25 16.125,24.625 16,25 16,25.5 q 0,0.5 0,1 0,0.5 -0.125,0.875 Q 15.75,27.75 15.5,28 15.25,28.25 15.125,28.625 15,29 15,29.5 q 0,0.5 0,1 0,0.5 0,1 0,0.5 0,1 0,0.5 0,1 0,0.5 0,1 0,0.5 0,1 0,0.5 0,1 0,0.5 0.125,0.875 Q 15.25,37.75 15.5,38 15.75,38.25 15.875,38.625 16,39 16,39.5 q 0,0.5 0,1 0,0.5 0.125,0.875 Q 16.25,41.75 16.5,42 16.75,42.25 16.875,42.625 17,43 17,43.5 q 0,0.5 0,1 0,0.5 0,1 0,0.5 0,1 0,0.5 -0.125,0.875 Q 16.75,47.75 16.5,47.75 16.25,47.75 16,47.5 15.75,47.25 15.5,47 15.25,46.75 15,46.5 14.75,46.25 14.5,46 14.25,45.75 14.125,45.375 14,45 14,44.5 14,44 13.875,43.625 13.75,43.25 13.5,43 13.25,42.75 13,42.5 12.75,42.25 12.5,42 12.25,41.75 12.125,41.375 12,41 12,40.5 12,40 11.875,39.625 11.75,39.25 11.5,39 11.25,38.75 11.125,38.375 11,38 11,37.5 q 0,-0.5 0,-1 0,-0.5 0,-1 0,-0.5 0,-1 0,-0.5 0,-1 0,-0.5 0,-1 0,-0.5 0,-1 0,-0.5 0,-1 0,-0.5 0,-1 0,-0.5 0,-1 Q 11,28 11.125,27.625 11.25,27.25 11.5,27 11.75,26.75 11.875,26.375 12,26 12,25.5 12,25 12.125,24.625 12.25,24.25 12.5,24 12.75,23.75 13,23.5 13.25,23.25 13.5,23 13.75,22.75 13.875,22.375 14,22 14.125,21.625 14.25,21.25 14.5,21 14.75,20.75 14.875,20.375 15,20 15.125,19.625 15.25,19.25 15.5,19 15.75,18.75 16,18.5 16.25,18.25 16.5,18 16.75,17.75 17,17.5 17.25,17.25 17.5,17 17.75,16.75 18,16.5 18.25,16.25 18.5,16 18.75,15.75 19,15.5 19.25,15.25 19.5,15 19.75,14.75 20,14.5 20.25,14.25 20.5,14 20.75,13.75 21,13.5 21.25,13.25 21.625,13.125 22,13 22.5,13 23,13 23.375,12.875 23.75,12.75 24,12.5 24.25,12.25 24.625,12.125 25,12 25.375,11.875 25.75,11.75 26,11.5 26.25,11.25 26.625,11.125 27,11 27.5,11 28,11 28.375,10.875 28.75,10.75 29,10.5"
         style="fill:#ffffff;fill-opacity:1" />
      <path
         id="path21277"
         d="m 33,15.5 c 0.166667,-0.166667 0.375,-0.291667 0.625,-0.375 C 33.875,15.041667 34.166667,15 34.5,15 c 0.333333,0 0.625,0.04167 0.875,0.125 0.25,0.08333 0.458333,0.208333 0.625,0.375 0.166667,0.166667 0.375,0.291667 0.625,0.375 0.25,0.08333 0.541667,0.125 0.875,0.125 l 1,0 c 0.333333,0 0.625,0.04167 0.875,0.125 0.25,0.08333 0.458333,0.208333 0.625,0.375 0.166667,0.166667 0.375,0.291667 0.625,0.375 l 0.75,0.25 c 0.25,0.08333 0.458333,0.208333 0.625,0.375 0.166667,0.166667 0.375,0.291667 0.625,0.375 l 0.75,0.25 c 0.25,0.08333 0.458333,0.208333 0.625,0.375 0.166667,0.166667 0.375,0.291667 0.625,0.375 l 0.75,0.25 c 0.25,0.08333 0.458333,0.208333 0.625,0.375 l 0.5,0.5 c 0.166667,0.166667 0.291667,0.375 0.375,0.625 l 0.25,0.75 c 0.08333,0.25 0.208333,0.458333 0.375,0.625 l 0.5,0.5 0.5,0.5 0.5,0.5 0.5,0.5 c 0.166667,0.166667 0.291667,0.375 0.375,0.625 l 0.25,0.75 c 0.08333,0.25 0.208333,0.458333 0.375,0.625 0.166667,0.166667 0.291667,0.375 0.375,0.625 l 0.25,0.75 c 0.08333,0.25 0.208333,0.458333 0.375,0.625 0.166667,0.166667 0.291667,0.375 0.375,0.625 0.08333,0.25 0.125,0.541667 0.125,0.875 l 0,1 0,1 0,1 0,1 0,1 0,1 0,1 c 0,0.333333 -0.04167,0.625 -0.125,0.875 -0.08333,0.25 -0.25,0.416667 -0.5,0.5 -0.25,0.08333 -0.5,0.08333 -0.75,0 -0.25,-0.08333 -0.416667,-0.25 -0.5,-0.5 C 50.041667,37.125 50,36.833333 50,36.5 l 0,-1 C 50,35.166667 49.958333,34.875 49.875,34.625 49.791667,34.375 49.666667,34.166667 49.5,34 L 49,33.5 C 48.833333,33.333333 48.625,33.208333 48.375,33.125 48.125,33.041667 47.833333,33 47.5,33 l -1,0 -1,0 -1,0 -1,0 -1,0 c -0.333333,0 -0.625,0.04167 -0.875,0.125 -0.25,0.08333 -0.416667,0.25 -0.5,0.5 C 41.041667,33.875 41,34.166667 41,34.5 c 0,0.333333 0.04167,0.625 0.125,0.875 0.08333,0.25 0.208333,0.458333 0.375,0.625 0.166667,0.166667 0.291667,0.375 0.375,0.625 l 0.25,0.75 c 0.08333,0.25 0.208333,0.458333 0.375,0.625 l 0.5,0.5 c 0.166667,0.166667 0.375,0.291667 0.625,0.375 l 0.75,0.25 c 0.25,0.08333 0.458333,0.208333 0.625,0.375 0.166667,0.166667 0.375,0.291667 0.625,0.375 0.25,0.08333 0.541667,0.125 0.875,0.125 l 1,0 c 0.333333,0 0.625,0.04167 0.875,0.125 0.25,0.08333 0.458333,0.208333 0.625,0.375 l 0.5,0.5 0.5,0.5 0.5,0.5 0.5,0.5 0.5,0.5 c 0.166667,0.166667 0.291667,0.375 0.375,0.625 0.08333,0.25 0.125,0.541667 0.125,0.875 l 0,1 0,1 c 0,0.333333 0.04167,0.625 0.125,0.875 0.08333,0.25 0.208333,0.458333 0.375,0.625 0.166667,0.166667 0.291667,0.375 0.375,0.625 0.08333,0.25 0.125,0.541667 0.125,0.875 l 0,1 0,1 0,1 0,1 0,1 0,1 0,1 c 0,0.333333 0.04167,0.625 0.125,0.875 0.08333,0.25 0.208333,0.458333 0.375,0.625 0.166667,0.166667 0.291667,0.375 0.375,0.625 0.08333,0.25 0.125,0.541667 0.125,0.875 l 0,1 0,1 0,1 0,1 0,0.5 -0.5,0 -0.5,0 0,-0.5 C 53,63.166667 52.958333,62.875 52.875,62.625 52.791667,62.375 52.666667,62.166667 52.5,62 L 52,61.5 c -0.166667,-0.166667 -0.375,-0.291667 -0.625,-0.375 l -0.75,-0.25 C 50.375,60.791667 50.166667,60.666667 50,60.5 L 49.5,60 49,59.5 48.5,59 c -0.166667,-0.166667 -0.291667,-0.375 -0.375,-0.625 l -0.25,-0.75 C 47.791667,57.375 47.666667,57.166667 47.5,57 L 47,56.5 C 46.833333,56.333333 46.625,56.208333 46.375,56.125 46.125,56.041667 45.833333,56 45.5,56 45.166667,56 44.875,55.958333 44.625,55.875 44.375,55.791667 44.166667,55.666667 44,55.5 43.833333,55.333333 43.625,55.208333 43.375,55.125 l -0.75,-0.25 C 42.375,54.791667 42.166667,54.666667 42,54.5 41.833333,54.333333 41.625,54.208333 41.375,54.125 41.125,54.041667 40.833333,54 40.5,54 40.166667,54 39.875,53.958333 39.625,53.875 39.375,53.791667 39.166667,53.666667 39,53.5 38.833333,53.333333 38.625,53.208333 38.375,53.125 38.125,53.041667 37.833333,53 37.5,53 l -1,0 -1,0 C 35.166667,53 34.875,52.958333 34.625,52.875 34.375,52.791667 34.166667,52.666667 34,52.5 L 33.5,52 33,51.5 c -0.166667,-0.166667 -0.375,-0.291667 -0.625,-0.375 l -0.75,-0.25 c -0.25,-0.08333 -0.416667,-0.25 -0.5,-0.5 l -0.25,-0.75 C 30.791667,49.375 30.666667,49.166667 30.5,49 30.333333,48.833333 30.208333,48.625 30.125,48.375 30.041667,48.125 30,47.833333 30,47.5 l 0,-1 0,-1 0,-1 c 0,-0.333333 -0.04167,-0.625 -0.125,-0.875 -0.08333,-0.25 -0.208333,-0.375 -0.375,-0.375 -0.166667,0 -0.291667,0.125 -0.375,0.375 C 29.041667,43.875 29,44.166667 29,44.5 l 0,1 0,1 0,1 c 0,0.333333 0.04167,0.625 0.125,0.875 0.08333,0.25 0.208333,0.458333 0.375,0.625 0.166667,0.166667 0.291667,0.375 0.375,0.625 0.08333,0.25 0.125,0.541667 0.125,0.875 l 0,1 c 0,0.333333 -0.04167,0.625 -0.125,0.875 -0.08333,0.25 -0.25,0.416667 -0.5,0.5 C 29.125,52.958333 28.833333,53 28.5,53 l -1,0 c -0.333333,0 -0.625,0.04167 -0.875,0.125 -0.25,0.08333 -0.458333,0.208333 -0.625,0.375 -0.166667,0.166667 -0.375,0.291667 -0.625,0.375 C 25.125,53.958333 24.833333,54 24.5,54 c -0.333333,0 -0.625,0.04167 -0.875,0.125 -0.25,0.08333 -0.458333,0.208333 -0.625,0.375 -0.166667,0.166667 -0.375,0.291667 -0.625,0.375 l -0.75,0.25 c -0.25,0.08333 -0.458333,0.208333 -0.625,0.375 -0.166667,0.166667 -0.375,0.291667 -0.625,0.375 l -0.75,0.25 c -0.25,0.08333 -0.458333,0.208333 -0.625,0.375 -0.166667,0.166667 -0.375,0.291667 -0.625,0.375 -0.25,0.08333 -0.5,0.08333 -0.75,0 C 17.375,56.791667 17.166667,56.666667 17,56.5 L 16.5,56 C 16.333333,55.833333 16.208333,55.625 16.125,55.375 16.041667,55.125 16,54.833333 16,54.5 c 0,-0.333333 0.04167,-0.625 0.125,-0.875 0.08333,-0.25 0.208333,-0.458333 0.375,-0.625 0.166667,-0.166667 0.291667,-0.375 0.375,-0.625 l 0.25,-0.75 c 0.08333,-0.25 0.208333,-0.458333 0.375,-0.625 0.166667,-0.166667 0.291667,-0.375 0.375,-0.625 l 0.25,-0.75 C 18.208333,49.375 18.333333,49.166667 18.5,49 18.666667,48.833333 18.791667,48.625 18.875,48.375 18.958333,48.125 19,47.833333 19,47.5 l 0,-1 0,-1 0,-1 C 19,44.166667 18.958333,43.875 18.875,43.625 18.791667,43.375 18.666667,43.166667 18.5,43 18.333333,42.833333 18.208333,42.625 18.125,42.375 18.041667,42.125 18,41.833333 18,41.5 18,41.166667 17.958333,40.875 17.875,40.625 17.791667,40.375 17.666667,40.166667 17.5,40 17.333333,39.833333 17.208333,39.625 17.125,39.375 l -0.25,-0.75 C 16.791667,38.375 16.666667,38.166667 16.5,38 16.333333,37.833333 16.208333,37.625 16.125,37.375 16.041667,37.125 16,36.833333 16,36.5 l 0,-1 0,-1 0,-1 0,-1 0,-1 0,-1 c 0,-0.333333 0.04167,-0.625 0.125,-0.875 0.08333,-0.25 0.208333,-0.458333 0.375,-0.625 0.166667,-0.166667 0.291667,-0.375 0.375,-0.625 C 16.958333,28.125 17,27.833333 17,27.5 l 0,-1 c 0,-0.333333 0.04167,-0.625 0.125,-0.875 0.08333,-0.25 0.208333,-0.458333 0.375,-0.625 L 18,24.5 18.5,24 c 0.166667,-0.166667 0.291667,-0.375 0.375,-0.625 l 0.25,-0.75 C 19.208333,22.375 19.333333,22.166667 19.5,22 L 20,21.5 20.5,21 c 0.166667,-0.166667 0.291667,-0.375 0.375,-0.625 l 0.25,-0.75 c 0.08333,-0.25 0.25,-0.416667 0.5,-0.5 C 21.875,19.041667 22.166667,19 22.5,19 c 0.333333,0 0.625,-0.04167 0.875,-0.125 0.25,-0.08333 0.458333,-0.208333 0.625,-0.375 L 24.5,18 25,17.5 c 0.166667,-0.166667 0.375,-0.291667 0.625,-0.375 l 0.75,-0.25 C 26.625,16.791667 26.833333,16.666667 27,16.5 27.166667,16.333333 27.375,16.208333 27.625,16.125 27.875,16.041667 28.166667,16 28.5,16 l 1,0 1,0 1,0 c 0.333333,0 0.625,-0.04167 0.875,-0.125 0.25,-0.08333 0.458333,-0.208333 0.625,-0.375 M 34.5,37 c 0.333333,0 0.625,-0.04167 0.875,-0.125 0.25,-0.08333 0.416667,-0.25 0.5,-0.5 l 0.25,-0.75 c 0.08333,-0.25 0.208333,-0.458333 0.375,-0.625 0.166667,-0.166667 0.291667,-0.375 0.375,-0.625 0.08333,-0.25 0.08333,-0.5 0,-0.75 C 36.791667,33.375 36.666667,33.166667 36.5,33 36.333333,32.833333 36.208333,32.625 36.125,32.375 36.041667,32.125 36,31.833333 36,31.5 c 0,-0.333333 -0.04167,-0.625 -0.125,-0.875 -0.08333,-0.25 -0.25,-0.416667 -0.5,-0.5 C 35.125,30.041667 34.833333,30 34.5,30 c -0.333333,0 -0.625,0.04167 -0.875,0.125 -0.25,0.08333 -0.774034,-0.04262 -0.857367,0.207383 -0.08333,0.25 -0.561782,0.165444 -0.561782,0.498777 0,0.333334 -0.160789,0.415988 -0.244123,0.665988 -0.08333,0.25 -0.09716,0.535938 -0.301462,0.709012 l -0.59117,0.500815 c 0,0 0.139237,0.668025 0.0559,0.918025 -0.08333,0.25 -0.08333,0.5 0,0.75 0.08333,0.25 0.25,0.416667 0.5,0.5 0,0 0.363853,1.41777 1.5,1.5 0.124876,0.203177 0.25,0.416667 0.5,0.5 0.25,0.08333 0.541667,0.125 0.875,0.125"
         style="fill:#ffffff;fill-opacity:1" />
      <path
         id="path21279"
         d="M 0,30.5 0,30 0.5,30 q 0.5,0 0.875,0.125 0.375,0.125 0.5,0.5 Q 2,31 2,31.5 2,32 2.125,32.375 2.25,32.75 2.625,32.875 3,33 3.5,33 4,33 4.375,33.125 4.75,33.25 4.875,33.625 5,34 5,34.5 5,35 5,35.5 5,36 4.875,36.375 4.75,36.75 4.375,36.875 4,37 3.625,37.125 3.25,37.25 3,37.5 2.75,37.75 2.375,37.875 2,38 1.5,38 1,38 0.5,38 L 0,38 0,37.5 0,37 0,36.5 0,36 0,35.5 0,35 0,34.5 0,34 0,33.5 0,33 0,32.5 0,32 0,31.5 0,31 0,30.5"
         style="fill:#000000;fill-opacity:0" />
      <path
         id="path21281"
         d="m 33.125,30.625 q 0.125,-0.375 0.5,-0.5 Q 34,30 34.5,30 q 0.5,0 0.875,0.125 0.375,0.125 0.5,0.5 Q 36,31 36,31.5 36,32 36.125,32.375 36.25,32.75 36.5,33 q 0.25,0.25 0.375,0.625 0.125,0.375 0,0.75 Q 36.75,34.75 36.5,35 36.25,35.25 36.125,35.625 36,36 35.875,36.375 35.75,36.75 35.375,36.875 35,37 34.5,37 34,37 33.625,36.875 33.25,36.75 33.125,36.375 33,36 32.875,35.625 32.75,35.25 32.375,35.125 32,35 31.625,34.875 31.25,34.75 31.125,34.375 31,34 31.125,33.625 31.25,33.25 31.625,33.125 32,33 32.375,32.875 32.75,32.75 32.875,32.375 33,32 33,31.5 33,31 33.125,30.625"
         style="fill:#000000;fill-opacity:0" />
    </g>
  </g>
</svg>
